<svg width="24" height="24" viewBox="0 0 24 24" fill="none" xmlns="http://www.w3.org/2000/svg">
<path d="M12.6504 0.312731C11.0548 0.598571 9.65445 1.64641 8.93037 3.08953C8.52069 3.90409 8.35893 4.63273 8.38749 5.55193L8.40189 6.12361L7.92093 6.12841C6.35877 6.14737 4.89166 6.85249 3.9343 8.05273C2.50534 9.83881 2.3863 12.2585 3.6343 14.1876C3.89638 14.5973 4.43446 15.1639 4.84894 15.4831C5.29677 15.8213 6.12069 16.2166 6.68757 16.3642C7.81629 16.6546 9.13581 16.531 10.1599 16.0498L10.4695 15.9022L10.6456 16.0975C11.0887 16.5833 11.946 17.1454 12.6223 17.3883L13.0461 17.5407V20.4557V23.3707L13.1556 23.5327C13.2127 23.6232 13.3224 23.7137 13.3936 23.7377C13.5794 23.8044 13.8508 23.7187 13.9699 23.5613C14.07 23.4281 14.07 23.3851 14.0841 20.5798L14.0937 17.7315L14.6558 17.7029C15.6084 17.6554 16.5516 17.341 17.3373 16.8123C17.7566 16.5264 18.3804 15.912 18.671 15.493C18.9996 15.0166 19.314 14.3357 19.4618 13.7782C19.5619 13.4019 19.5856 13.1779 19.5998 12.6065L19.6142 11.9064L19.8808 11.6064C20.6239 10.7919 21.0763 9.76321 21.2001 8.62945C21.3621 7.13857 20.7619 5.51449 19.6332 4.41889C19.338 4.13305 18.6806 3.64249 18.5234 3.59497C18.4615 3.57601 18.352 3.41401 18.2282 3.17593C17.7043 2.12809 16.8756 1.28977 15.8563 0.775453C14.9222 0.303133 13.6838 0.126971 12.6504 0.312731ZM14.5888 1.38433C15.2889 1.56529 15.8654 1.88449 16.4179 2.40361C16.818 2.77513 17.0942 3.17041 17.3752 3.77065C17.6085 4.26121 17.6133 4.26121 17.9136 4.42321C19.0329 5.02345 19.8093 6.00937 20.0949 7.19041C20.2236 7.74289 20.2236 8.54305 20.0949 9.09553C19.914 9.84817 19.3663 10.7722 18.8232 11.239C18.5232 11.5011 18.504 11.5627 18.5707 12.0915C18.7516 13.5965 18.0278 15.1159 16.7083 15.9972C16.0605 16.4355 15.3319 16.6639 14.5411 16.6831L14.1172 16.6927L14.1076 13.6445L14.098 10.596L15.1696 9.61969C16.4937 8.41465 16.5223 8.38129 16.5223 8.14801C16.5223 7.79089 16.1652 7.54297 15.846 7.68601C15.7603 7.72417 15.341 8.07649 14.9172 8.47201C14.4933 8.86729 14.1362 9.19129 14.1218 9.19129C14.1074 9.19129 14.0884 7.97185 14.0836 6.47641L14.0695 3.76153L13.9219 3.61393C13.7551 3.45193 13.517 3.40921 13.3216 3.51865C13.0596 3.65689 13.0692 3.40921 13.0454 8.45785L13.0216 13.1256L10.5688 11.8248C8.77797 10.8771 8.07309 10.5245 7.95861 10.5245C7.72989 10.5245 7.47285 10.7866 7.47285 11.0055C7.47765 11.0959 7.50621 11.2198 7.53957 11.2865C7.59189 11.3722 8.33493 11.7915 10.3164 12.8393L13.0216 14.2776L13.0358 15.3778L13.0454 16.4782L12.774 16.3591C12.1452 16.0781 11.5975 15.6588 11.1165 15.0874C10.7832 14.6825 10.6164 14.635 10.2878 14.8303C9.08277 15.5496 7.88733 15.6972 6.63933 15.2827C6.01053 15.0732 5.52477 14.7684 5.01982 14.2587C4.1911 13.4251 3.80518 12.4822 3.80518 11.3009C3.80518 10.4578 4.0243 9.71953 4.46734 9.04801C4.71022 8.68129 5.20077 8.15737 5.54853 7.90489C5.84853 7.69057 6.45357 7.39993 6.85365 7.28569C7.35861 7.13809 8.19213 7.10473 8.70165 7.20937C9.15885 7.29985 9.28749 7.28089 9.45429 7.08073C9.59253 6.91393 9.59253 6.79009 9.44949 6.09481C9.22557 5.01841 9.54957 3.77041 10.2974 2.83225C10.9548 2.00353 11.9596 1.43185 13.0029 1.28425C13.4313 1.22713 14.141 1.27009 14.5888 1.38433Z" fill="#BB99DD"/>
</svg>
